<svg width="242" height="242" viewBox="0 0 242 242" fill="none" xmlns="http://www.w3.org/2000/svg">
<path d="M144.16 121C144.16 133.791 133.791 144.16 121 144.16C108.209 144.16 97.8398 133.791 97.8398 121C97.8398 108.209 108.209 97.8398 121 97.8398C133.791 97.8398 144.16 108.209 144.16 121Z" fill="#C0E1E7"/>
<path d="M175.163 80.0226C174.05 77.0057 172.274 74.275 169.966 72.0336C167.725 69.7257 164.996 67.9496 161.977 66.8362C159.529 65.8854 155.851 64.7536 149.077 64.4453C141.749 64.1111 139.552 64.0391 121 64.0391C102.446 64.0391 100.249 64.1092 92.9231 64.4434C86.149 64.7536 82.4693 65.8854 80.0229 66.8362C77.0042 67.9496 74.2735 69.7257 72.0339 72.0336C69.726 74.275 67.9499 77.0039 66.8347 80.0226C65.8838 82.4708 64.7521 86.1505 64.4437 92.9246C64.1095 100.251 64.0375 102.448 64.0375 121.002C64.0375 139.553 64.1095 141.75 64.4437 149.078C64.7521 155.853 65.8838 159.53 66.8347 161.979C67.9499 164.997 69.7242 167.726 72.0321 169.968C74.2735 172.275 77.0023 174.052 80.0211 175.165C82.4693 176.118 86.149 177.249 92.9231 177.558C100.249 177.892 102.445 177.962 120.998 177.962C139.554 177.962 141.751 177.892 149.075 177.558C155.849 177.249 159.529 176.118 161.977 175.165C168.037 172.828 172.826 168.038 175.163 161.979C176.114 159.53 177.246 155.853 177.556 149.078C177.89 141.75 177.961 139.553 177.961 121.002C177.961 102.448 177.89 100.251 177.556 92.9246C177.248 86.1505 176.116 82.4708 175.163 80.0226V80.0226ZM121 156.678C101.294 156.678 85.32 140.705 85.32 121C85.32 101.294 101.294 85.3215 121 85.3215C140.704 85.3215 156.678 101.294 156.678 121C156.678 140.705 140.704 156.678 121 156.678ZM158.089 92.2489C153.484 92.2489 149.751 88.5156 149.751 83.9109C149.751 79.3062 153.484 75.573 158.089 75.573C162.693 75.573 166.427 79.3062 166.427 83.9109C166.425 88.5156 162.693 92.2489 158.089 92.2489Z" fill="#C0E1E7"/>
<path d="M121 0C54.1838 0 0 54.1838 0 121C0 187.816 54.1838 242 121 242C187.816 242 242 187.816 242 121C242 54.1838 187.816 0 121 0ZM190.061 149.646C189.725 157.042 188.549 162.092 186.832 166.512C183.223 175.845 175.845 183.223 166.512 186.832C162.093 188.549 157.042 189.723 149.647 190.061C142.238 190.399 139.871 190.48 121.002 190.48C102.131 190.48 99.7655 190.399 92.3544 190.061C84.96 189.723 79.9084 188.549 75.4902 186.832C70.8523 185.087 66.6538 182.353 63.1827 178.817C59.6488 175.348 56.9145 171.148 55.1697 166.512C53.4526 162.093 52.2765 157.042 51.9405 149.647C51.5989 142.236 51.5195 139.869 51.5195 121C51.5195 102.131 51.5989 99.7637 51.9386 92.3544C52.2747 84.9581 53.4489 79.9084 55.166 75.4884C56.9108 70.8523 59.647 66.6519 63.1827 63.1827C66.6519 59.647 70.8523 56.9126 75.4884 55.1678C79.9084 53.4508 84.9581 52.2765 92.3544 51.9386C99.7637 51.6008 102.131 51.5195 121 51.5195C139.869 51.5195 142.236 51.6008 149.646 51.9405C157.042 52.2765 162.092 53.4508 166.512 55.166C171.148 56.9108 175.348 59.647 178.819 63.1827C182.353 66.6538 185.089 70.8523 186.832 75.4884C188.551 79.9084 189.725 84.9581 190.063 92.3544C190.401 99.7637 190.48 102.131 190.48 121C190.48 139.869 190.401 142.236 190.061 149.646V149.646Z" fill="#C0E1E7"/>
</svg>
