<svg width="242" height="242" viewBox="0 0 242 242" fill="none" xmlns="http://www.w3.org/2000/svg">
<path d="M121 242C187.826 242 242 187.826 242 121C242 54.1735 187.826 0 121 0C54.1735 0 0 54.1735 0 121C0 187.826 54.1735 242 121 242Z" fill="#C0E1E7"/>
<path d="M55.3677 118.378L172.032 73.3965C177.447 71.4403 182.176 74.7174 180.421 82.9051L180.431 82.895L160.567 176.478C159.095 183.113 155.152 184.727 149.637 181.601L119.387 159.306L104.796 173.363C103.183 174.976 101.822 176.337 98.6957 176.337L100.843 145.553L156.907 94.9042C159.347 92.7565 156.362 91.5465 153.146 93.6841L83.8632 137.305L53.9963 127.988C47.5127 125.931 47.3716 121.504 55.3677 118.378V118.378Z" fill="white"/>
</svg>
