<svg width="242" height="242" viewBox="0 0 242 242" fill="none" xmlns="http://www.w3.org/2000/svg">
<path d="M121 0C54.1758 0 0 54.1733 0 121C0 187.827 54.1758 242 121 242C187.824 242 242 187.827 242 121C242 54.1733 187.824 0 121 0ZM182.378 134.087C188.017 139.595 193.984 144.779 199.047 150.857C201.29 153.546 203.404 156.326 205.013 159.453C207.31 163.911 205.236 168.801 201.245 169.066L176.456 169.061C170.054 169.591 164.959 167.008 160.663 162.631C157.234 159.143 154.053 155.417 150.751 151.81C149.401 150.33 147.98 148.936 146.287 147.839C142.907 145.641 139.971 146.314 138.035 149.844C136.062 153.437 135.612 157.418 135.423 161.416C135.154 167.261 133.391 168.788 127.526 169.063C114.994 169.65 103.103 167.749 92.0516 161.431C82.3023 155.858 74.7563 147.993 68.1809 139.087C55.3765 121.728 45.5703 102.675 36.7592 83.0747C34.7762 78.6605 36.227 76.2987 41.0967 76.2071C49.1873 76.0511 57.2779 76.0709 65.3685 76.1997C68.6612 76.2517 70.8398 78.1357 72.1049 81.2427C76.4769 91.9996 81.8368 102.234 88.5534 111.726C90.3434 114.254 92.1704 116.774 94.7724 118.559C97.6442 120.53 99.8327 119.878 101.187 116.672C102.053 114.635 102.427 112.456 102.615 110.273C103.259 102.794 103.336 95.3171 102.222 87.8677C101.529 83.2059 98.9068 80.1955 94.2599 79.3141C91.8932 78.866 92.2398 77.9896 93.391 76.6379C95.3888 74.3008 97.2605 72.855 101.001 72.855L129.009 72.85C133.423 73.7165 134.413 75.6971 135.012 80.1435L135.037 111.268C134.985 112.989 135.901 118.089 138.991 119.215C141.467 120.032 143.101 118.046 144.581 116.479C151.298 109.352 156.083 100.939 160.369 92.2323C162.26 88.3925 163.892 84.419 165.476 80.4381C166.654 77.4945 168.486 76.0462 171.809 76.0957L198.779 76.1279C199.574 76.1279 200.381 76.1353 201.168 76.2715C205.714 77.0488 206.959 79.0046 205.553 83.4386C203.339 90.4053 199.039 96.2083 194.835 102.026C190.33 108.255 185.524 114.266 181.063 120.522C176.963 126.241 177.288 129.12 182.378 134.087Z" fill="#C0E1E7"/>
</svg>
