<svg width="155" height="167" viewBox="0 0 155 167" fill="none" xmlns="http://www.w3.org/2000/svg"><path d="M77.5 159.416c42.802 0 77.5-34.698 77.5-77.5s-34.698-77.5-77.5-77.5c-6.286 0-12.397.748-18.25 2.16v150.679a77.672 77.672 0 0018.25 2.161zm-27.73-5.108V9.524C20.665 20.68 0 48.884 0 81.916c0 33.031 20.664 61.236 49.77 72.392z" fill="#00A3FF"/><path d="M119.147 144.651h-5.058c-8.796 0-15.336-2.073-19.62-6.221-4.283-4.101-6.425-10.345-6.425-18.73V96.184c0-2.233-.251-4.215-.752-5.947-.502-1.777-1.39-3.258-2.666-4.443-1.23-1.23-2.894-2.165-4.99-2.803-2.051-.638-4.65-.957-7.794-.957h-2.939v-9.502h2.94c3.326 0 6.038-.273 8.134-.82 2.096-.547 3.737-1.368 4.922-2.461 1.185-1.14 2.005-2.575 2.461-4.307.456-1.732.684-3.782.684-6.152V42.59c0-3.828.455-7.27 1.367-10.323.911-3.099 2.392-5.719 4.443-7.861 2.097-2.188 4.785-3.85 8.067-4.99 3.326-1.185 7.382-1.777 12.168-1.777h5.058v9.57h-4.033c-10.573 0-15.86 5.127-15.86 15.38v15.928c0 11.12-4.807 17.386-14.423 18.8 9.707.956 14.56 7.2 14.56 18.73v23.379c0 10.436 5.241 15.654 15.723 15.654h4.033v9.57z" fill="#FFE600"/></svg>