<svg width="327" height="351" viewBox="0 0 327 351" fill="none" xmlns="http://www.w3.org/2000/svg"><path d="M163.5 335c90.299 0 163.5-73.201 163.5-163.5S253.799 8 163.5 8a163.918 163.918 0 00-38.5 4.559V330.44a163.916 163.916 0 0038.5 4.56zM105 324.223V18.777C43.595 42.312 0 101.815 0 171.5c0 69.685 43.595 129.188 105 152.723z" fill="#00A3FF"/><path d="M253.396 308.059h-10.839c-18.848 0-32.862-4.444-42.041-13.33-9.18-8.79-13.77-22.168-13.77-40.137v-50.391c0-4.785-.537-9.033-1.611-12.744-1.074-3.809-2.979-6.982-5.713-9.521-2.637-2.637-6.201-4.639-10.693-6.006-4.395-1.368-9.961-2.051-16.7-2.051h-6.299v-20.361h6.299c7.129 0 12.94-.586 17.432-1.758 4.492-1.172 8.008-2.93 10.547-5.274 2.539-2.441 4.297-5.517 5.273-9.228.977-3.711 1.465-8.106 1.465-13.184V89.357c0-8.203.977-15.576 2.93-22.119 1.953-6.64 5.127-12.256 9.521-16.845 4.492-4.688 10.254-8.252 17.285-10.694 7.129-2.539 15.821-3.808 26.075-3.808h10.839v20.507h-8.642c-22.656 0-33.984 10.987-33.984 32.96v34.13c0 23.828-10.303 37.256-30.909 40.283 20.801 2.051 31.201 15.43 31.201 40.137v50.098c0 22.363 11.231 33.545 33.692 33.545h8.642v20.508z" fill="#FFE600"/></svg>