<svg width="140" height="48" viewBox="0 0 140 48" fill="none" xmlns="http://www.w3.org/2000/svg"><g clip-path="url(#clip0)"><path d="M20.02 42.522h-1.508c-2.622 0-4.572-.61-5.849-1.828-1.277-1.205-1.916-3.04-1.916-5.504v-6.911c0-.656-.075-1.239-.224-1.748a2.76 2.76 0 00-.795-1.305c-.367-.362-.863-.637-1.488-.824-.61-.188-1.385-.282-2.323-.282h-.876v-2.792h.876c.992 0 1.8-.08 2.425-.24.625-.162 1.115-.403 1.468-.724a2.64 2.64 0 00.733-1.266c.136-.509.204-1.111.204-1.808v-4.76c0-1.125.136-2.136.408-3.033.272-.911.713-1.681 1.325-2.31.625-.644 1.426-1.132 2.404-1.467.992-.348 2.202-.523 3.628-.523h1.508V8.01h-1.202c-3.152 0-4.728 1.507-4.728 4.52v4.68c0 3.269-1.434 5.11-4.3 5.525 2.893.282 4.34 2.116 4.34 5.505v6.87c0 3.067 1.563 4.6 4.688 4.6h1.202v2.813zM121.148 5.196h1.509c2.621 0 4.571.61 5.848 1.829 1.278 1.205 1.916 3.04 1.916 5.504v4.64c0 .657.075 1.246.224 1.769.15.508.408.944.775 1.305.38.349.883.616 1.508.804.625.187 1.406.281 2.343.281h.877v2.793h-.877c-.991 0-1.807.08-2.445.24-.625.161-1.114.41-1.468.744-.353.321-.597.736-.733 1.245-.136.51-.204 1.112-.204 1.808v7.032c0 1.125-.136 2.136-.407 3.033-.272.91-.714 1.681-1.325 2.31-.612.643-1.413 1.132-2.405 1.467-.992.348-2.201.522-3.627.522h-1.509V39.71h1.223c3.139 0 4.708-1.507 4.708-4.52v-6.951c0-3.268 1.433-5.103 4.3-5.505-2.894-.308-4.341-2.15-4.341-5.524v-4.6c0-3.068-1.555-4.601-4.667-4.601h-1.223V5.196z" fill="#09C"/><path d="M45.842 21.167c0 2.01-.203 3.844-.611 5.505-.408 1.647-1.026 3.067-1.855 4.259a8.78 8.78 0 01-3.097 2.752c-1.223.643-2.664.964-4.321.964-1.427 0-2.724-.26-3.893-.783-1.168-.536-2.167-1.353-2.996-2.451-.828-1.098-1.467-2.498-1.915-4.199-.449-1.7-.673-3.716-.673-6.047 0-2.009.204-3.843.611-5.504.422-1.66 1.04-3.08 1.855-4.259.829-1.192 1.861-2.11 3.098-2.752 1.236-.656 2.676-.985 4.32-.985 1.427 0 2.725.268 3.893.804 1.169.522 2.167 1.34 2.996 2.45.829 1.1 1.468 2.499 1.916 4.2.448 1.7.672 3.716.672 6.046zm-3.587.12c0-.454-.02-.903-.06-1.345a37.744 37.744 0 00-.103-1.326l-11.27 8.257c.204.696.462 1.34.774 1.928.313.59.687 1.099 1.121 1.527.449.415.952.743 1.509.985.57.227 1.216.341 1.936.341.924 0 1.76-.22 2.507-.663.76-.442 1.406-1.098 1.936-1.969.53-.87.937-1.948 1.223-3.234.285-1.3.427-2.8.427-4.5zm-12.187-.24v1.245c.014.416.04.817.081 1.206l11.27-8.217a9.327 9.327 0 00-.774-1.868 5.757 5.757 0 00-1.12-1.447 4.726 4.726 0 00-1.488-.964c-.557-.227-1.182-.341-1.875-.341a4.94 4.94 0 00-2.527.663c-.748.442-1.386 1.105-1.916 1.989-.53.87-.938 1.955-1.223 3.254-.285 1.286-.428 2.779-.428 4.48zm39.028-.18a20.73 20.73 0 01-.305 3.615 13.408 13.408 0 01-.938 3.214 11.002 11.002 0 01-1.691 2.712c-.693.804-1.542 1.494-2.548 2.07-1.005.576-2.174 1.024-3.505 1.346-1.332.308-2.847.462-4.545.462h-5.707V8.029h6.869c4.157 0 7.255 1.058 9.293 3.174 2.052 2.103 3.077 5.324 3.077 9.663zm-3.81.26c0-1.861-.177-3.435-.53-4.72-.354-1.287-.89-2.324-1.61-3.115-.72-.79-1.624-1.359-2.711-1.707-1.087-.362-2.364-.543-3.832-.543h-3.118v20.15h2.71c6.06 0 9.09-3.355 9.09-10.065zm25.373 13.159H75.333V8.029h3.689v23.203h11.637v3.054zm25.618 0h-3.954l-1.854-5.726H99.382l-1.875 5.726h-3.77l8.845-26.257h4.973l8.722 26.257zm-6.847-8.92l-4.505-14.042-4.504 14.042h9.009z" fill="#FFE600"/><path d="M113.913 5.143v6" stroke="#FFE500" stroke-width="2"/><path d="M1.522 5.143v37.714" stroke="#09C" stroke-width="3.5"/><path d="M24.348 5.143v6" stroke="#FFE500" stroke-width="2"/></g><defs><clipPath id="clip0"><path fill="#fff" d="M0 0h140v48H0z"/></clipPath></defs></svg>