<svg width="58" height="99" viewBox="0 0 58 99" fill="none" xmlns="http://www.w3.org/2000/svg"><path fill="#E5E5E5" d="M0 0h58v99H0z"/><path d="M51.9 91.246h-3.23c-5.62 0-9.798-1.308-12.535-3.923-2.737-2.587-4.105-6.524-4.105-11.812V60.682c0-1.408-.16-2.658-.48-3.75-.32-1.121-.889-2.055-1.704-2.802-.786-.776-1.849-1.366-3.188-1.768-1.31-.402-2.97-.603-4.978-.603h-1.878v-5.992h1.878c2.125 0 3.857-.173 5.197-.518 1.339-.345 2.387-.862 3.144-1.552.757-.718 1.281-1.623 1.572-2.716.291-1.092.437-2.385.437-3.88V26.886c0-2.414.291-4.584.873-6.51.583-1.953 1.529-3.606 2.84-4.957 1.338-1.38 3.056-2.428 5.152-3.146 2.126-.748 4.717-1.121 7.774-1.121h3.232v6.035h-2.577c-6.755 0-10.132 3.233-10.132 9.7V36.93c0 7.013-3.071 10.964-9.215 11.855 6.202.604 9.302 4.54 9.302 11.812V75.34c0 6.581 3.349 9.872 10.045 9.872h2.577v6.035zM268.603 11.15h3.233c5.618 0 9.796 1.307 12.533 3.922 2.738 2.587 4.105 6.524 4.105 11.812v9.958c0 1.408.161 2.673.481 3.794a6.405 6.405 0 001.66 2.802c.815.747 1.892 1.322 3.231 1.724 1.34.402 3.013.604 5.022.604h1.878v5.992h-1.878c-2.124 0-3.872.172-5.24.517-1.339.345-2.387.876-3.145 1.595-.757.69-1.28 1.58-1.571 2.673-.292 1.092-.438 2.385-.438 3.88V75.51c0 2.414-.29 4.584-.872 6.51-.583 1.954-1.53 3.606-2.84 4.957-1.309 1.38-3.027 2.428-5.152 3.147-2.126.747-4.718 1.12-7.774 1.12h-3.233V85.21h2.622c6.725 0 10.088-3.233 10.088-9.7V60.596c0-7.012 3.071-10.95 9.215-11.812-6.202-.66-9.302-4.612-9.302-11.855v-9.872c0-6.58-3.334-9.871-10.001-9.871h-2.622V11.15z" fill="#09C"/><path d="M12.26 11.036v80.928" stroke="#09C" stroke-width="6"/></svg>