<svg width="242" height="242" viewBox="0 0 242 242" fill="none" xmlns="http://www.w3.org/2000/svg"><path d="M144.16 121c0 12.791-10.369 23.16-23.16 23.16S97.84 133.791 97.84 121 108.209 97.84 121 97.84s23.16 10.369 23.16 23.16z" fill="#C0E1E7"/><path d="M175.163 80.023a21.52 21.52 0 00-5.197-7.99 21.508 21.508 0 00-7.989-5.197c-2.448-.95-6.126-2.082-12.9-2.39-7.328-.335-9.525-.407-28.077-.407-18.554 0-20.751.07-28.077.404-6.774.31-10.454 1.442-12.9 2.393a21.5 21.5 0 00-7.99 5.198 21.54 21.54 0 00-5.198 7.989c-.951 2.448-2.083 6.127-2.391 12.902-.335 7.326-.407 9.523-.407 28.077 0 18.551.072 20.748.407 28.076.308 6.775 1.44 10.452 2.39 12.901a21.546 21.546 0 005.198 7.989 21.518 21.518 0 007.99 5.197c2.447.953 6.127 2.084 12.901 2.393 7.326.334 9.522.404 28.075.404 18.556 0 20.753-.07 28.077-.404 6.774-.309 10.454-1.44 12.902-2.393a23.005 23.005 0 0013.186-13.186c.951-2.449 2.083-6.126 2.393-12.901.334-7.328.405-9.525.405-28.076 0-18.554-.071-20.751-.405-28.077-.308-6.775-1.44-10.454-2.393-12.902zM121 156.678c-19.706 0-35.68-15.973-35.68-35.678 0-19.706 15.974-35.678 35.68-35.678 19.704 0 35.678 15.972 35.678 35.678 0 19.705-15.974 35.678-35.678 35.678zm37.089-64.43a8.338 8.338 0 110-16.675 8.338 8.338 0 010 16.676z" fill="#C0E1E7"/><path d="M121 0C54.184 0 0 54.184 0 121s54.184 121 121 121 121-54.184 121-121S187.816 0 121 0zm69.061 149.646c-.336 7.396-1.512 12.446-3.229 16.866a35.523 35.523 0 01-20.32 20.32c-4.419 1.717-9.47 2.891-16.865 3.229-7.409.338-9.776.419-28.645.419-18.871 0-21.236-.081-28.648-.419-7.394-.338-12.446-1.512-16.864-3.229a34.04 34.04 0 01-12.307-8.015 34.048 34.048 0 01-8.013-12.305c-1.717-4.419-2.894-9.47-3.23-16.865-.341-7.411-.42-9.778-.42-28.647s.079-21.236.419-28.646c.336-7.396 1.51-12.446 3.227-16.866a34.038 34.038 0 018.017-12.305 34.033 34.033 0 0112.305-8.015c4.42-1.717 9.47-2.892 16.866-3.23 7.41-.337 9.777-.419 28.646-.419s21.236.082 28.646.422c7.396.335 12.446 1.51 16.866 3.225a34.059 34.059 0 0112.307 8.017 34.043 34.043 0 018.013 12.305c1.719 4.42 2.893 9.47 3.231 16.866.338 7.41.417 9.777.417 28.646s-.079 21.236-.419 28.646z" fill="#C0E1E7"/></svg>