<svg width="242" height="242" viewBox="0 0 242 242" fill="none" xmlns="http://www.w3.org/2000/svg"><path d="M121 242c66.826 0 121-54.174 121-121C242 54.173 187.826 0 121 0 54.173 0 0 54.173 0 121c0 66.826 54.173 121 121 121z" fill="#C0E1E7"/><path d="M55.368 118.378l116.664-44.981c5.415-1.957 10.144 1.32 8.389 9.508l.01-.01-19.864 93.583c-1.472 6.635-5.415 8.249-10.93 5.123l-30.25-22.295-14.591 14.057c-1.613 1.613-2.974 2.974-6.1 2.974l2.147-30.784 56.064-50.649c2.44-2.147-.545-3.358-3.761-1.22l-69.283 43.621-29.867-9.317c-6.483-2.057-6.624-6.484 1.372-9.61z" fill="#fff"/></svg>