<svg width="242" height="242" viewBox="0 0 242 242" fill="none" xmlns="http://www.w3.org/2000/svg"><path d="M121 0C54.176 0 0 54.173 0 121s54.176 121 121 121 121-54.173 121-121S187.824 0 121 0zm61.378 134.087c5.639 5.508 11.606 10.692 16.669 16.77 2.243 2.689 4.357 5.469 5.966 8.596 2.297 4.458.223 9.348-3.768 9.613l-24.789-.005c-6.402.53-11.497-2.053-15.793-6.43-3.429-3.488-6.61-7.214-9.912-10.821-1.35-1.48-2.771-2.874-4.464-3.971-3.38-2.198-6.316-1.525-8.252 2.005-1.973 3.593-2.423 7.574-2.612 11.572-.269 5.845-2.032 7.372-7.897 7.647-12.532.587-24.423-1.314-35.474-7.632-9.75-5.573-17.296-13.438-23.871-22.344-12.804-17.359-22.61-36.412-31.422-56.012-1.983-4.415-.532-6.776 4.338-6.868 8.09-.156 16.18-.136 24.271-.007 3.293.052 5.472 1.936 6.737 5.043 4.372 10.757 9.732 20.991 16.448 30.483 1.79 2.528 3.617 5.048 6.22 6.833 2.871 1.971 5.06 1.319 6.414-1.887.866-2.037 1.24-4.216 1.428-6.399.644-7.479.721-14.956-.393-22.405-.693-4.662-3.315-7.672-7.962-8.554-2.367-.448-2.02-1.324-.869-2.676 1.998-2.337 3.87-3.783 7.61-3.783l28.008-.005c4.414.867 5.404 2.847 6.003 7.294l.025 31.124c-.052 1.721.864 6.821 3.954 7.947 2.476.817 4.11-1.169 5.59-2.736 6.717-7.127 11.502-15.54 15.788-24.247 1.891-3.84 3.523-7.813 5.107-11.794 1.178-2.944 3.01-4.392 6.333-4.342l26.97.032c.795 0 1.602.007 2.389.144 4.546.777 5.791 2.733 4.385 7.167-2.214 6.966-6.514 12.77-10.718 18.587-4.505 6.229-9.311 12.24-13.772 18.496-4.1 5.719-3.775 8.598 1.315 13.565z" fill="#C0E1E7"/></svg>