<svg width="140" height="48" viewBox="0 0 140 48" fill="none" xmlns="http://www.w3.org/2000/svg">
<g clip-path="url(#clip0)">
<path d="M20.0204 42.5224H18.5123C15.8899 42.5224 13.9402 41.9129 12.663 40.6942C11.3859 39.4888 10.7473 37.654 10.7473 35.1898V28.279C10.7473 27.6228 10.6725 27.0402 10.5231 26.5312C10.3737 26.009 10.1087 25.5736 9.72827 25.2255C9.3614 24.8638 8.86548 24.5893 8.24049 24.4018C7.62908 24.2143 6.85462 24.1205 5.91713 24.1205H5.04077V21.3281H5.91713C6.90897 21.3281 7.7174 21.2478 8.3424 21.0871C8.9674 20.9264 9.45653 20.6853 9.80975 20.3638C10.163 20.029 10.4077 19.6072 10.5435 19.0982C10.6793 18.5893 10.7473 17.9866 10.7473 17.2902V12.529C10.7473 11.404 10.8831 10.3929 11.1549 9.49553C11.4266 8.58481 11.8682 7.81475 12.4797 7.18528C13.1046 6.54242 13.9063 6.05358 14.8845 5.71877C15.8764 5.37055 17.0856 5.19644 18.5123 5.19644H20.0204V8.00894H18.8179C15.6657 8.00894 14.0897 9.51567 14.0897 12.529V17.2098C14.0897 20.4777 12.6563 22.3192 9.7894 22.7344C12.6834 23.0157 14.1304 24.8505 14.1304 28.2388V35.1094C14.1304 38.1764 15.693 39.7098 18.8179 39.7098H20.0204V42.5224ZM121.148 5.19644H122.657C125.278 5.19644 127.228 5.80582 128.505 7.02456C129.783 8.22992 130.421 10.0648 130.421 12.529V17.1696C130.421 17.8259 130.496 18.4152 130.645 18.9376C130.795 19.4464 131.053 19.8817 131.42 20.2433C131.8 20.5915 132.303 20.8594 132.928 21.0469C133.553 21.2344 134.334 21.3281 135.271 21.3281H136.148V24.1205H135.271C134.28 24.1205 133.464 24.2009 132.826 24.3616C132.201 24.5224 131.712 24.7701 131.358 25.105C131.005 25.4264 130.761 25.8415 130.625 26.3505C130.489 26.8594 130.421 27.4621 130.421 28.1585V35.1898C130.421 36.3148 130.285 37.3259 130.014 38.2233C129.742 39.1339 129.3 39.904 128.689 40.5335C128.077 41.1764 127.276 41.6652 126.284 42C125.292 42.3482 124.083 42.5224 122.657 42.5224H121.148V39.7098H122.371C125.51 39.7098 127.079 38.2031 127.079 35.1898V28.2388C127.079 24.971 128.512 23.1362 131.379 22.7344C128.485 22.4264 127.038 20.5848 127.038 17.2098V12.6094C127.038 9.54241 125.483 8.00894 122.371 8.00894H121.148V5.19644Z" fill="#0099CC"/>
<path d="M45.8424 21.1674C45.8424 23.1764 45.6386 25.0112 45.231 26.6719C44.8234 28.3192 44.2051 29.7388 43.3764 30.9308C42.5476 32.1094 41.515 33.0268 40.2785 33.6831C39.0557 34.3259 37.6155 34.6474 35.9579 34.6474C34.5312 34.6474 33.2337 34.3862 32.0652 33.8638C30.8967 33.3281 29.8981 32.5112 29.0693 31.4129C28.2405 30.3148 27.6019 28.9152 27.1536 27.2143C26.7051 25.5134 26.481 23.4978 26.481 21.1674C26.481 19.1585 26.6848 17.3236 27.0923 15.6629C27.5136 14.0022 28.1318 12.5826 28.947 11.404C29.7758 10.2121 30.8084 9.2947 32.0449 8.65184C33.2812 7.99554 34.7215 7.66742 36.3655 7.66742C37.7921 7.66742 39.0897 7.93528 40.2582 8.47099C41.4266 8.99333 42.4253 9.81027 43.2541 10.9219C44.0829 12.0201 44.7215 13.4196 45.1698 15.1205C45.6182 16.8214 45.8424 18.8371 45.8424 21.1674ZM42.2555 21.2879C42.2555 20.8326 42.235 20.3839 42.1943 19.942C42.1671 19.4866 42.1331 19.0447 42.0923 18.6161L30.822 26.8728C31.0258 27.5692 31.284 28.2121 31.5964 28.8014C31.909 29.3907 32.2826 29.8996 32.7174 30.3281C33.1657 30.7433 33.6685 31.0714 34.2256 31.3125C34.7962 31.5402 35.4416 31.654 36.1617 31.654C37.0856 31.654 37.9212 31.4331 38.6685 30.991C39.4294 30.5491 40.0747 29.8929 40.6046 29.0224C41.1345 28.1518 41.5421 27.0736 41.8275 25.7879C42.1128 24.4888 42.2555 22.9888 42.2555 21.2879ZM30.0679 21.0469C30.0679 21.4621 30.0679 21.8772 30.0679 22.2924C30.0816 22.7076 30.1087 23.1094 30.1495 23.4978L41.4198 15.2812C41.216 14.5982 40.9579 13.9755 40.6454 13.4129C40.3329 12.8505 39.9592 12.3683 39.5244 11.9665C39.0897 11.5514 38.5937 11.23 38.0367 11.0022C37.4797 10.7746 36.8546 10.6607 36.1617 10.6607C35.2377 10.6607 34.3954 10.8817 33.6345 11.3236C32.8872 11.7657 32.2486 12.4286 31.7188 13.3125C31.1889 14.1831 30.7812 15.2679 30.4959 16.567C30.2106 17.8527 30.0679 19.346 30.0679 21.0469ZM69.0964 20.8661C69.0964 22.125 68.9946 23.3304 68.7908 24.4822C68.6005 25.6339 68.288 26.7053 67.8532 27.6964C67.4184 28.6876 66.8546 29.5915 66.1617 30.4085C65.4688 31.2121 64.6196 31.9018 63.6141 32.4777C62.6087 33.0536 61.4402 33.5022 60.1087 33.8236C58.7772 34.1317 57.2623 34.2857 55.5638 34.2857H49.8573V8.02903H56.7256C60.8831 8.02903 63.981 9.0871 66.019 11.2031C68.0706 13.3058 69.0964 16.5268 69.0964 20.8661ZM65.2853 21.1272C65.2853 19.2657 65.1087 17.692 64.7555 16.4062C64.4022 15.1205 63.8655 14.0826 63.1454 13.2924C62.4253 12.5022 61.5217 11.9331 60.4348 11.5848C59.3478 11.2233 58.0706 11.0424 56.6033 11.0424H53.485V31.192H56.1957C62.2555 31.192 65.2853 27.8371 65.2853 21.1272ZM90.6591 34.2857H75.3329V8.02903H79.0217V31.2322H90.6591V34.2857ZM116.277 34.2857H112.323L110.469 28.5603H99.3817L97.507 34.2857H93.7365L102.582 8.02903H107.555L116.277 34.2857ZM109.43 25.3661L104.925 11.3236L100.421 25.3661H109.43Z" fill="#FFE600"/>
<path d="M113.913 5.14285V11.1429" stroke="#FFE500" stroke-width="2"/>
<path d="M1.52173 5.14285V42.8571" stroke="#0099CC" stroke-width="3.5"/>
<path d="M24.3478 5.14285V11.1429" stroke="#FFE500" stroke-width="2"/>
</g>
<defs>
<clipPath id="clip0">
<rect width="140" height="48" fill="white"/>
</clipPath>
</defs>
</svg>
